/* Generated file, do not edit */
#define ccfont3_width 4096
#define ccfont3_height 13
static const uint8_t ccfont3_bits [] = {
  0x00, 0x00, 0x00, 0x00, 0x00, 0x00, 0x00, 0x00,
  0x00, 0x00, 0x00, 0x00, 0x00, 0x00, 0x00, 0x00,
  0x00, 0x00, 0x00, 0x00, 0x00, 0x00, 0x00, 0x00,
  0x00, 0x00, 0x00, 0x00, 0x00, 0x00, 0x00, 0x00,
  0x00, 0x00, 0x00, 0x00, 0x00, 0x00, 0x00, 0x00,
  0x00, 0x00, 0x00, 0x00, 0x00, 0x00, 0x00, 0x00,
  0x00, 0x00, 0x00, 0x00, 0x00, 0x00, 0x00, 0x00,
  0x00, 0x00, 0x00, 0x00, 0x00, 0x00, 0x00, 0x00,
  0x00, 0x00, 0x00, 0x00, 0x00, 0x00, 0x00, 0x00,
  0x00, 0x00, 0x00, 0x00, 0x00, 0x00, 0x00, 0x00,
  0x00, 0x00, 0x00, 0x00, 0x00, 0x00, 0x00, 0x00,
  0x00, 0x00, 0x00, 0x00, 0x00, 0x00, 0x00, 0x00,
  0x00, 0x00, 0x00, 0x00, 0x00, 0x00, 0x00, 0x00,
  0x00, 0x00, 0x00, 0x00, 0x00, 0x00, 0x00, 0x00,
  0x00, 0x00, 0x00, 0x00, 0x00, 0x00, 0x00, 0x00,
  0x00, 0x00, 0x00, 0x00, 0x00, 0x00, 0x00, 0x00,
  0x00, 0x00, 0x00, 0x00, 0x00, 0x00, 0x00, 0x00,
  0x00, 0x00, 0x00, 0x00, 0x00, 0x00, 0x00, 0x00,
  0x00, 0x00, 0x00, 0x00, 0x00, 0x00, 0x00, 0x00,
  0x00, 0x00, 0x00, 0x00, 0x00, 0x00, 0x00, 0x00,
  0x00, 0x00, 0x00, 0x00, 0x00, 0x00, 0x00, 0x00,
  0x00, 0x00, 0x00, 0x00, 0x00, 0x00, 0x00, 0x00,
  0x00, 0x00, 0x00, 0x00, 0x00, 0x00, 0x00, 0x00,
  0x00, 0x00, 0x00, 0x00, 0x00, 0x00, 0x00, 0x00,
  0x00, 0x00, 0x00, 0x00, 0x00, 0x00, 0x00, 0x00,
  0x00, 0x00, 0x00, 0x00, 0x00, 0x00, 0x00, 0x00,
  0x00, 0x00, 0x00, 0x00, 0x00, 0x00, 0x00, 0x00,
  0x00, 0x00, 0x00, 0x00, 0x00, 0x00, 0x00, 0x00,
  0x00, 0x00, 0x00, 0x00, 0x00, 0x00, 0x00, 0x00,
  0x00, 0x00, 0x00, 0x00, 0x00, 0x00, 0x00, 0x00,
  0x00, 0x00, 0x00, 0x00, 0x00, 0x00, 0x00, 0x00,
  0x00, 0x00, 0x00, 0x00, 0x00, 0x00, 0x00, 0x00,
  0x00, 0x00, 0x00, 0x00, 0x00, 0x00, 0x00, 0x00,
  0x00, 0x00, 0x00, 0x00, 0x00, 0x00, 0x00, 0x00,
  0x00, 0x00, 0x00, 0x00, 0x00, 0x00, 0x00, 0x00,
  0x00, 0x00, 0x00, 0x00, 0x00, 0x00, 0x00, 0x00,
  0x00, 0x00, 0x00, 0x00, 0x00, 0x00, 0x00, 0x00,
  0x00, 0x00, 0x00, 0x00, 0x00, 0x00, 0x00, 0x00,
  0x00, 0x00, 0x00, 0x00, 0x00, 0x00, 0x00, 0x00,
  0x00, 0x00, 0x00, 0x00, 0x00, 0x00, 0x00, 0x00,
  0x00, 0x00, 0x00, 0x00, 0x00, 0x00, 0x00, 0x00,
  0x00, 0x00, 0x00, 0x00, 0x00, 0x00, 0x00, 0x00,
  0x00, 0x00, 0x00, 0x00, 0x00, 0x00, 0x00, 0x00,
  0x00, 0x00, 0x00, 0x00, 0x00, 0x00, 0x00, 0x00,
  0x00, 0x00, 0x00, 0x00, 0x00, 0x00, 0x00, 0x00,
  0x00, 0x00, 0x00, 0x00, 0x00, 0x00, 0x00, 0x00,
  0x00, 0x00, 0x00, 0x00, 0x00, 0x00, 0x00, 0x00,
  0x00, 0x00, 0x00, 0x00, 0x00, 0x00, 0x00, 0x00,
  0x00, 0x00, 0x00, 0x00, 0x00, 0x00, 0x00, 0x00,
  0x00, 0x00, 0x00, 0x00, 0x00, 0x00, 0x00, 0x00,
  0x00, 0x00, 0x00, 0x00, 0x00, 0x00, 0x00, 0x00,
  0x00, 0x00, 0x00, 0x00, 0x00, 0x00, 0x00, 0x00,
  0x00, 0x00, 0x00, 0x00, 0x00, 0x00, 0x00, 0x00,
  0x00, 0x00, 0x00, 0x00, 0x00, 0x00, 0x00, 0x00,
  0x00, 0x00, 0x00, 0x00, 0x00, 0x00, 0x00, 0x00,
  0x00, 0x00, 0x00, 0x00, 0x00, 0x00, 0x00, 0x00,
  0x00, 0x00, 0x00, 0x00, 0x00, 0x00, 0x00, 0x00,
  0x00, 0x00, 0x00, 0x00, 0x00, 0x00, 0x00, 0x00,
  0x00, 0x00, 0x00, 0x00, 0x00, 0x00, 0x00, 0x00,
  0x00, 0x00, 0x00, 0x00, 0x00, 0x00, 0x00, 0x00,
  0x00, 0x00, 0x00, 0x00, 0x00, 0x00, 0x00, 0x00,
  0x00, 0x00, 0x00, 0x00, 0x00, 0x00, 0x00, 0x00,
  0x00, 0x00, 0x00, 0x00, 0x00, 0x00, 0x00, 0x00,
  0x00, 0x00, 0x00, 0x00, 0x00, 0x00, 0x00, 0x00,
  0x00, 0x00, 0x00, 0x00, 0x00, 0x00, 0x00, 0x00,
  0x00, 0x00, 0x00, 0x00, 0x00, 0x07, 0x00, 0x07,
  0x00, 0x07, 0x00, 0x07, 0x00, 0x07, 0x00, 0x00,
  0x00, 0x00, 0xf8, 0x1f, 0xf8, 0x39, 0x00, 0x00,
  0x00, 0x00, 0x00, 0x00, 0x00, 0x00, 0x00, 0x00,
  0x00, 0x00, 0x00, 0x00, 0x00, 0x00, 0x00, 0x00,
  0xe0, 0x00, 0x00, 0x00, 0xe0, 0x00, 0x80, 0x01,
  0x80, 0x01, 0x80, 0x01, 0x80, 0x01, 0x80, 0x01,
  0x00, 0x00, 0x00, 0x00, 0x00, 0x00, 0x00, 0x00,
  0x00, 0x00, 0x00, 0x00, 0x00, 0x00, 0x00, 0x00,
  0x00, 0x00, 0x00, 0x00, 0x00, 0x07, 0x00, 0x00,
  0x00, 0x00, 0x00, 0x00, 0x00, 0x00, 0x00, 0x00,
  0x00, 0x00, 0x00, 0x00, 0x00, 0x00, 0x00, 0x00,
  0x00, 0x00, 0x00, 0x00, 0x00, 0x00, 0x00, 0x00,
  0x00, 0x00, 0x00, 0x00, 0x00, 0x00, 0x00, 0x00,
  0x00, 0x00, 0x00, 0x00, 0x00, 0x00, 0x00, 0x00,
  0x00, 0x00, 0x00, 0x00, 0x00, 0x00, 0x00, 0x00,
  0x00, 0x00, 0x00, 0x00, 0x00, 0x00, 0x00, 0x00,
  0x00, 0x00, 0x00, 0x00, 0x00, 0x00, 0x00, 0x00,
  0x00, 0x00, 0x00, 0x00, 0x00, 0x00, 0x00, 0x00,
  0x00, 0x00, 0x00, 0x00, 0x00, 0x00, 0x00, 0x00,
  0x00, 0x00, 0x00, 0x00, 0x00, 0x00, 0x00, 0x00,
  0x00, 0x00, 0x00, 0x00, 0x00, 0x00, 0x00, 0x00,
  0x00, 0x06, 0x00, 0x00, 0x00, 0x03, 0x00, 0x06,
  0x00, 0x07, 0x00, 0x00, 0x00, 0x00, 0x00, 0x00,
  0x00, 0x00, 0x00, 0x00, 0x00, 0x00, 0x00, 0x00,
  0x00, 0x00, 0x00, 0x00, 0x00, 0x00, 0x00, 0x00,
  0x00, 0x00, 0x00, 0x00, 0x00, 0x00, 0x00, 0x00,
  0x00, 0x00, 0x00, 0x00, 0x00, 0x00, 0x00, 0x00,
  0x00, 0x00, 0x00, 0x00, 0x00, 0x00, 0x00, 0x00,
  0x00, 0x00, 0x00, 0x00, 0x00, 0x00, 0x00, 0x00,
  0x00, 0x00, 0xf8, 0x1f, 0xf8, 0x39, 0x00, 0x00,
  0x00, 0x00, 0x00, 0x00, 0x00, 0x00, 0x00, 0x00,
  0x00, 0x00, 0x00, 0x00, 0x00, 0x0e, 0x00, 0x0e,
  0x00, 0x0e, 0x00, 0x0e, 0x00, 0x0e, 0x00, 0x00,
  0x00, 0x00, 0xf0, 0x3f, 0xf0, 0x73, 0x00, 0x00,
  0x00, 0x00, 0x00, 0x00, 0x00, 0x00, 0x00, 0x00,
  0x00, 0x00, 0x00, 0x00, 0x00, 0x00, 0x00, 0x00,
  0xc0, 0x01, 0x00, 0x00, 0xc0, 0x01, 0x00, 0x03,
  0x00, 0x03, 0x00, 0x03, 0x00, 0x03, 0x00, 0x03,
  0x00, 0x00, 0x00, 0x00, 0x00, 0x00, 0x00, 0x00,
  0x00, 0x00, 0x00, 0x00, 0x00, 0x00, 0x00, 0x00,
  0x00, 0x00, 0x00, 0x00, 0x00, 0x0e, 0x00, 0x00,
  0x00, 0x00, 0x00, 0x00, 0x00, 0x00, 0x00, 0x00,
  0x00, 0x00, 0x00, 0x00, 0x00, 0x00, 0x00, 0x00,
  0x00, 0x00, 0x00, 0x00, 0x00, 0x00, 0x00, 0x00,
  0x00, 0x00, 0x00, 0x00, 0x00, 0x00, 0x00, 0x00,
  0x00, 0x00, 0x00, 0x00, 0x00, 0x00, 0x00, 0x00,
  0x00, 0x00, 0x00, 0x00, 0x00, 0x00, 0x00, 0x00,
  0x00, 0x00, 0x00, 0x00, 0x00, 0x00, 0x00, 0x00,
  0x00, 0x00, 0x00, 0x00, 0x00, 0x00, 0x00, 0x00,
  0x00, 0x00, 0x00, 0x00, 0x00, 0x00, 0x00, 0x00,
  0x00, 0x00, 0x00, 0x00, 0x00, 0x00, 0x00, 0x00,
  0x00, 0x00, 0x00, 0x00, 0x00, 0x00, 0x00, 0x00,
  0x00, 0x00, 0x00, 0x00, 0x00, 0x00, 0x00, 0x00,
  0x00, 0x0c, 0x00, 0x00, 0x00, 0x06, 0x00, 0x0c,
  0x00, 0x0e, 0x00, 0x00, 0x00, 0x00, 0x00, 0x00,
  0x00, 0x00, 0x00, 0x00, 0x00, 0x00, 0x00, 0x00,
  0x00, 0x00, 0x00, 0x00, 0x00, 0x00, 0x00, 0x00,
  0x00, 0x00, 0x00, 0x00, 0x00, 0x00, 0x00, 0x00,
  0x00, 0x00, 0x00, 0x00, 0x00, 0x00, 0x00, 0x00,
  0x00, 0x00, 0x00, 0x00, 0x00, 0x00, 0x00, 0x00,
  0x00, 0x00, 0x00, 0x00, 0x00, 0x00, 0x00, 0x00,
  0x00, 0x00, 0xf0, 0x3f, 0xf0, 0x73, 0x00, 0x00,
  0x00, 0x00, 0x00, 0x00, 0x00, 0x00, 0x00, 0x00,
  0x00, 0x00, 0x00, 0x00, 0x80, 0x03, 0x80, 0x03,
  0x80, 0x03, 0x80, 0x03, 0x80, 0x03, 0x00, 0x00,
  0x00, 0x00, 0x00, 0x00, 0x9c, 0x1f, 0x00, 0x00,
  0x00, 0x00, 0x00, 0x00, 0x00, 0x00, 0x00, 0x00,
  0x00, 0x00, 0x00, 0x00, 0x00, 0x00, 0x00, 0x00,
  0xc0, 0x01, 0x00, 0x00, 0xc0, 0x01, 0xe0, 0x07,
  0xe0, 0x07, 0xe0, 0x07, 0xe0, 0x07, 0xe0, 0x07,
  0x00, 0x00, 0x00, 0x00, 0x00, 0x00, 0x00, 0x00,
  0x80, 0x01, 0x3c, 0x1c, 0xf0, 0x01, 0x80, 0x03,
  0x00, 0x07, 0xe0, 0x00, 0x80, 0x03, 0x00, 0x00,
  0x00, 0x00, 0x00, 0x00, 0x00, 0x00, 0x00, 0x00,
  0x00, 0x00, 0x00, 0x00, 0x00, 0x00, 0x00, 0x00,
  0x00, 0x00, 0x00, 0x00, 0x00, 0x00, 0x00, 0x00,
  0x00, 0x00, 0x00, 0x00, 0x00, 0x00, 0x00, 0x00,
  0x00, 0x00, 0x00, 0x00, 0x00, 0x00, 0x00, 0x00,
  0x00, 0x00, 0x00, 0x00, 0x00, 0x00, 0x00, 0x00,
  0x00, 0x00, 0x00, 0x00, 0x00, 0x00, 0x00, 0x00,
  0x00, 0x00, 0x00, 0x00, 0x00, 0x00, 0x00, 0x00,
  0x00, 0x00, 0x00, 0x00, 0x00, 0x00, 0x00, 0x00,
  0x00, 0x00, 0x00, 0x00, 0x00, 0x00, 0x00, 0x00,
  0x00, 0x00, 0x00, 0x00, 0x00, 0x00, 0x00, 0x00,
  0x00, 0x00, 0x00, 0x00, 0x00, 0x00, 0xe0, 0x07,
  0x00, 0x03, 0xe0, 0x07, 0x80, 0x01, 0x00, 0x03,
  0x80, 0x03, 0x00, 0x00, 0x00, 0x00, 0x00, 0x00,
  0x00, 0x00, 0x00, 0x00, 0x00, 0x00, 0x00, 0x00,
  0x00, 0x00, 0x00, 0x00, 0x00, 0x00, 0x00, 0x00,
  0x00, 0x00, 0x00, 0x00, 0x00, 0x00, 0x00, 0x00,
  0x00, 0x00, 0x00, 0x00, 0x00, 0x00, 0x00, 0x00,
  0x00, 0x00, 0x00, 0x00, 0x00, 0x00, 0x00, 0x00,
  0x00, 0x00, 0x00, 0x00, 0x00, 0x00, 0x00, 0x00,
  0x00, 0x00, 0x00, 0x00, 0x9c, 0x1f, 0x00, 0x00,
  0x00, 0x00, 0x00, 0x00, 0x00, 0x00, 0x00, 0x00,
  0x00, 0x00, 0x00, 0x00, 0x00, 0x07, 0x00, 0x07,
  0x00, 0x07, 0x00, 0x07, 0x00, 0x07, 0x00, 0x00,
  0x00, 0x00, 0x00, 0x00, 0x38, 0x3f, 0x00, 0x00,
  0x00, 0x00, 0x00, 0x00, 0x00, 0x00, 0x00, 0x00,
  0x00, 0x00, 0x00, 0x00, 0x00, 0x00, 0x00, 0x00,
  0x80, 0x03, 0x00, 0x00, 0x80, 0x03, 0xc0, 0x0f,
  0xc0, 0x0f, 0xc0, 0x0f, 0xc0, 0x0f, 0xc0, 0x0f,
  0x00, 0x00, 0x00, 0x00, 0x00, 0x00, 0x00, 0x00,
  0x00, 0x03, 0x78, 0x38, 0xe0, 0x03, 0x00, 0x07,
  0x00, 0x0e, 0xc0, 0x01, 0x00, 0x07, 0x00, 0x00,
  0x00, 0x00, 0x00, 0x00, 0x00, 0x00, 0x00, 0x00,
  0x00, 0x00, 0x00, 0x00, 0x00, 0x00, 0x00, 0x00,
  0x00, 0x00, 0x00, 0x00, 0x00, 0x00, 0x00, 0x00,
  0x00, 0x00, 0x00, 0x00, 0x00, 0x00, 0x00, 0x00,
  0x00, 0x00, 0x00, 0x00, 0x00, 0x00, 0x00, 0x00,
  0x00, 0x00, 0x00, 0x00, 0x00, 0x00, 0x00, 0x00,
  0x00, 0x00, 0x00, 0x00, 0x00, 0x00, 0x00, 0x00,
  0x00, 0x00, 0x00, 0x00, 0x00, 0x00, 0x00, 0x00,
  0x00, 0x00, 0x00, 0x00, 0x00, 0x00, 0x00, 0x00,
  0x00, 0x00, 0x00, 0x00, 0x00, 0x00, 0x00, 0x00,
  0x00, 0x00, 0x00, 0x00, 0x00, 0x00, 0x00, 0x00,
  0x00, 0x00, 0x00, 0x00, 0x00, 0x00, 0xc0, 0x0f,
  0x00, 0x06, 0xc0, 0x0f, 0x00, 0x03, 0x00, 0x06,
  0x00, 0x07, 0x00, 0x00, 0x00, 0x00, 0x00, 0x00,
  0x00, 0x00, 0x00, 0x00, 0x00, 0x00, 0x00, 0x00,
  0x00, 0x00, 0x00, 0x00, 0x00, 0x00, 0x00, 0x00,
  0x00, 0x00, 0x00, 0x00, 0x00, 0x00, 0x00, 0x00,
  0x00, 0x00, 0x00, 0x00, 0x00, 0x00, 0x00, 0x00,
  0x00, 0x00, 0x00, 0x00, 0x00, 0x00, 0x00, 0x00,
  0x00, 0x00, 0x00, 0x00, 0x00, 0x00, 0x00, 0x00,
  0x00, 0x00, 0x00, 0x00, 0x38, 0x3f, 0x00, 0x00,
  0x00, 0x00, 0x00, 0x00, 0x00, 0x00, 0x00, 0x00,
  0x00, 0x00, 0x00, 0x00, 0xc0, 0x01, 0xc0, 0x01,
  0xc0, 0x01, 0xc0, 0x01, 0xc0, 0x01, 0x00, 0x00,
  0x00, 0x00, 0x1c, 0x38, 0x00, 0x00, 0xfc, 0x3f,
  0xf8, 0x1f, 0xe0, 0x07, 0x1c, 0x0e, 0xc0, 0x01,
  0xfc, 0x33, 0x00, 0x00, 0xc0, 0x0f, 0xe0, 0x3f,
  0x80, 0x03, 0x00, 0x00, 0x80, 0x03, 0x38, 0x1c,
  0x38, 0x1c, 0x38, 0x1c, 0x38, 0x1c, 0x38, 0x1c,
  0x00, 0x00, 0xc0, 0x01, 0x38, 0x07, 0xe0, 0x1c,
  0xf8, 0x1f, 0x6e, 0x0e, 0xb8, 0x03, 0x80, 0x03,
  0x80, 0x03, 0xc0, 0x01, 0xc0, 0x01, 0x00, 0x00,
  0x00, 0x00, 0x00, 0x00, 0x00, 0x00, 0x00, 0x1c,
  0xf8, 0x1f, 0xc0, 0x01, 0xf8, 0x1f, 0xf8, 0x1f,
  0x00, 0x0f, 0xfc, 0x3f, 0xf8, 0x1f, 0xfc, 0x3f,
  0xf8, 0x1f, 0xf8, 0x1f, 0x00, 0x00, 0x00, 0x00,
  0x00, 0x38, 0x00, 0x00, 0x1c, 0x00, 0xf8, 0x1f,
  0xe0, 0x1f, 0xe0, 0x07, 0xfc, 0x1f, 0xf0, 0x1f,
  0xfc, 0x0f, 0xfc, 0x3f, 0xfc, 0x3f, 0xf0, 0x1f,
  0x1c, 0x38, 0xf0, 0x07, 0x00, 0x38, 0x1c, 0x38,
  0x1c, 0x00, 0x1c, 0x38, 0x1c, 0x38, 0xf0, 0x0f,
  0xfc, 0x1f, 0xf0, 0x0f, 0xfc, 0x1f, 0xf8, 0x1f,
  0xfe, 0x3f, 0x1c, 0x38, 0x1c, 0x38, 0x1c, 0x38,
  0x1c, 0x38, 0x1c, 0x1c, 0xfe, 0x3f, 0xe0, 0x00,
  0x80, 0x01, 0x00, 0x07, 0xc0, 0x00, 0x80, 0x01,
  0xc0, 0x01, 0x00, 0x00, 0x1c, 0x00, 0x00, 0x00,
  0x00, 0x38, 0x00, 0x00, 0x00, 0x3f, 0x00, 0x00,
  0x1c, 0x00, 0xc0, 0x01, 0xc0, 0x01, 0x1c, 0x00,
  0xf8, 0x01, 0x00, 0x00, 0x00, 0x00, 0x00, 0x00,
  0x00, 0x00, 0x00, 0x00, 0x00, 0x00, 0x00, 0x00,
  0xe0, 0x00, 0x00, 0x00, 0x00, 0x00, 0x00, 0x00,
  0x00, 0x00, 0x00, 0x00, 0x00, 0x00, 0x00, 0x00,
  0x00, 0x00, 0x1c, 0x38, 0x00, 0x00, 0xfc, 0x3f,
  0x00, 0x00, 0x00, 0x00, 0x00, 0x00, 0x00, 0x00,
  0x00, 0x00, 0x00, 0x00, 0x80, 0x03, 0x80, 0x03,
  0x80, 0x03, 0x80, 0x03, 0x80, 0x03, 0x00, 0x00,
  0x00, 0x00, 0x38, 0x70, 0x00, 0x00, 0xf8, 0x7f,
  0xf0, 0x3f, 0xc0, 0x0f, 0x38, 0x1c, 0x80, 0x03,
  0xf8, 0x67, 0x00, 0x00, 0x80, 0x1f, 0xc0, 0x7f,
  0x00, 0x07, 0x00, 0x00, 0x00, 0x07, 0x70, 0x38,
  0x70, 0x38, 0x70, 0x38, 0x70, 0x38, 0x70, 0x38,
  0x00, 0x00, 0x80, 0x03, 0x70, 0x0e, 0xc0, 0x39,
  0xf0, 0x3f, 0xdc, 0x1c, 0x70, 0x07, 0x00, 0x07,
  0x00, 0x07, 0x80, 0x03, 0x80, 0x03, 0x00, 0x00,
  0x00, 0x00, 0x00, 0x00, 0x00, 0x00, 0x00, 0x38,
  0xf0, 0x3f, 0x80, 0x03, 0xf0, 0x3f, 0xf0, 0x3f,
  0x00, 0x1e, 0xf8, 0x7f, 0xf0, 0x3f, 0xf8, 0x7f,
  0xf0, 0x3f, 0xf0, 0x3f, 0x00, 0x00, 0x00, 0x00,
  0x00, 0x70, 0x00, 0x00, 0x38, 0x00, 0xf0, 0x3f,
  0xc0, 0x3f, 0xc0, 0x0f, 0xf8, 0x3f, 0xe0, 0x3f,
  0xf8, 0x1f, 0xf8, 0x7f, 0xf8, 0x7f, 0xe0, 0x3f,
  0x38, 0x70, 0xe0, 0x0f, 0x00, 0x70, 0x38, 0x70,
  0x38, 0x00, 0x38, 0x70, 0x38, 0x70, 0xe0, 0x1f,
  0xf8, 0x3f, 0xe0, 0x1f, 0xf8, 0x3f, 0xf0, 0x3f,
  0xfc, 0x7f, 0x38, 0x70, 0x1c, 0x70, 0x38, 0x70,
  0x38, 0x70, 0x1c, 0x70, 0xfc, 0x7f, 0xc0, 0x01,
  0x00, 0x03, 0x00, 0x0e, 0x80, 0x01, 0x00, 0x03,
  0x80, 0x03, 0x00, 0x00, 0x38, 0x00, 0x00, 0x00,
  0x00, 0x70, 0x00, 0x00, 0x00, 0x7e, 0x00, 0x00,
  0x38, 0x00, 0x80, 0x03, 0x80, 0x03, 0x38, 0x00,
  0xf0, 0x03, 0x00, 0x00, 0x00, 0x00, 0x00, 0x00,
  0x00, 0x00, 0x00, 0x00, 0x00, 0x00, 0x00, 0x00,
  0xc0, 0x01, 0x00, 0x00, 0x00, 0x00, 0x00, 0x00,
  0x00, 0x00, 0x00, 0x00, 0x00, 0x00, 0x00, 0x00,
  0x00, 0x00, 0x38, 0x70, 0x00, 0x00, 0xf8, 0x7f,
  0x00, 0x00, 0x00, 0x00, 0x00, 0x00, 0x00, 0x00,
  0x00, 0x00, 0x00, 0x00, 0x00, 0x00, 0x00, 0x00,
  0x00, 0x00, 0x00, 0x00, 0x00, 0x00, 0x00, 0x00,
  0x00, 0x00, 0x3c, 0x38, 0x00, 0x00, 0xfc, 0x3f,
  0x1c, 0x38, 0x70, 0x0e, 0x18, 0x07, 0x00, 0x00,
  0x30, 0x3f, 0x80, 0x01, 0xe0, 0x1c, 0xe0, 0x3f,
  0x00, 0x00, 0x00, 0x00, 0x00, 0x00, 0x00, 0x00,
  0x00, 0x00, 0x00, 0x00, 0x00, 0x00, 0x00, 0x00,
  0x00, 0x00, 0xc0, 0x01, 0x38, 0x07, 0xe0, 0x1c,
  0x9c, 0x39, 0x3c, 0x07, 0xb8, 0x03, 0xc0, 0x01,
  0xc0, 0x01, 0x80, 0x03, 0x00, 0x00, 0xc0, 0x01,
  0x00, 0x00, 0x00, 0x00, 0x00, 0x00, 0x00, 0x0e,
  0x1c, 0x38, 0xf0, 0x01, 0x1c, 0x38, 0x1c, 0x38,
  0xc0, 0x0f, 0x0c, 0x00, 0x1c, 0x38, 0x1c, 0x38,
  0x1c, 0x38, 0x1c, 0x38, 0x00, 0x00, 0x00, 0x00,
  0x00, 0x0f, 0x00, 0x00, 0xf0, 0x00, 0x1c, 0x38,
  0x38, 0x38, 0x70, 0x0e, 0x1c, 0x38, 0x38, 0x38,
  0x1c, 0x1c, 0x1c, 0x00, 0x1c, 0x00, 0x38, 0x38,
  0x1c, 0x38, 0xc0, 0x01, 0x00, 0x38, 0x1c, 0x0e,
  0x1c, 0x00, 0x3c, 0x3c, 0x3c, 0x38, 0x38, 0x1c,
  0x1c, 0x38, 0x38, 0x1c, 0x1c, 0x38, 0x1c, 0x38,
  0xc0, 0x01, 0x1c, 0x38, 0x1c, 0x38, 0x1c, 0x38,
  0x38, 0x1c, 0x38, 0x0e, 0x00, 0x1c, 0xe0, 0x00,
  0x00, 0x00, 0x00, 0x07, 0x00, 0x00, 0x00, 0x00,
  0x00, 0x00, 0x00, 0x00, 0x1c, 0x00, 0x00, 0x00,
  0x00, 0x38, 0x00, 0x00, 0x80, 0x03, 0x00, 0x00,
  0x1c, 0x00, 0x00, 0x00, 0x00, 0x00, 0x1c, 0x00,
  0xc0, 0x01, 0x00, 0x00, 0x00, 0x00, 0x00, 0x00,
  0x00, 0x00, 0x00, 0x00, 0x00, 0x00, 0x00, 0x00,
  0xe0, 0x00, 0x00, 0x00, 0x00, 0x00, 0x00, 0x00,
  0x00, 0x00, 0x00, 0x00, 0x00, 0x00, 0x00, 0x00,
  0x00, 0x00, 0x3c, 0x38, 0x00, 0x00, 0xfc, 0x3f,
  0x00, 0x00, 0x00, 0x00, 0x00, 0x00, 0x00, 0x00,
  0x00, 0x00, 0x00, 0x00, 0x00, 0x00, 0x00, 0x00,
  0x00, 0x00, 0x00, 0x00, 0x00, 0x00, 0x00, 0x00,
  0x00, 0x00, 0x78, 0x70, 0x00, 0x00, 0xf8, 0x7f,
  0x38, 0x70, 0xe0, 0x1c, 0x30, 0x0e, 0x00, 0x00,
  0x60, 0x7e, 0x00, 0x03, 0xc0, 0x39, 0xc0, 0x7f,
  0x00, 0x00, 0x00, 0x00, 0x00, 0x00, 0x00, 0x00,
  0x00, 0x00, 0x00, 0x00, 0x00, 0x00, 0x00, 0x00,
  0x00, 0x00, 0x80, 0x03, 0x70, 0x0e, 0xc0, 0x39,
  0x38, 0x73, 0x78, 0x0e, 0x70, 0x07, 0x80, 0x03,
  0x80, 0x03, 0x00, 0x07, 0x00, 0x00, 0x80, 0x03,
  0x00, 0x00, 0x00, 0x00, 0x00, 0x00, 0x00, 0x1c,
  0x38, 0x70, 0xe0, 0x03, 0x38, 0x70, 0x38, 0x70,
  0x80, 0x1f, 0x18, 0x00, 0x38, 0x70, 0x38, 0x70,
  0x38, 0x70, 0x38, 0x70, 0x00, 0x00, 0x00, 0x00,
  0x00, 0x1e, 0x00, 0x00, 0xe0, 0x01, 0x38, 0x70,
  0x70, 0x70, 0xe0, 0x1c, 0x38, 0x70, 0x70, 0x70,
  0x38, 0x38, 0x38, 0x00, 0x38, 0x00, 0x70, 0x70,
  0x38, 0x70, 0x80, 0x03, 0x00, 0x70, 0x38, 0x1c,
  0x38, 0x00, 0x78, 0x78, 0x78, 0x70, 0x70, 0x38,
  0x38, 0x70, 0x70, 0x38, 0x38, 0x70, 0x38, 0x70,
  0x80, 0x03, 0x38, 0x70, 0x38, 0x38, 0x38, 0x70,
  0x70, 0x38, 0x38, 0x38, 0x00, 0x38, 0xc0, 0x01,
  0x00, 0x00, 0x00, 0x0e, 0x00, 0x00, 0x00, 0x00,
  0x00, 0x00, 0x00, 0x00, 0x38, 0x00, 0x00, 0x00,
  0x00, 0x70, 0x00, 0x00, 0x00, 0x07, 0x00, 0x00,
  0x38, 0x00, 0x00, 0x00, 0x00, 0x00, 0x38, 0x00,
  0x80, 0x03, 0x00, 0x00, 0x00, 0x00, 0x00, 0x00,
  0x00, 0x00, 0x00, 0x00, 0x00, 0x00, 0x00, 0x00,
  0xc0, 0x01, 0x00, 0x00, 0x00, 0x00, 0x00, 0x00,
  0x00, 0x00, 0x00, 0x00, 0x00, 0x00, 0x00, 0x00,
  0x00, 0x00, 0x78, 0x70, 0x00, 0x00, 0xf8, 0x7f,
  0x00, 0x00, 0x00, 0x00, 0x00, 0x00, 0x00, 0x00,
  0x00, 0x00, 0x00, 0x00, 0xf8, 0x1f, 0xf8, 0x1f,
  0xf0, 0x01, 0xf8, 0x1f, 0x1c, 0x38, 0xf8, 0x3f,
  0xc0, 0x01, 0xfc, 0x38, 0xfc, 0x1f, 0xfc, 0x3f,
  0xee, 0x73, 0x70, 0x0e, 0x98, 0x03, 0xc0, 0x01,
  0x30, 0x33, 0xf8, 0x3f, 0xe0, 0x00, 0x60, 0x30,
  0xf8, 0x1f, 0x00, 0x00, 0xf8, 0x1f, 0xf8, 0x1f,
  0xf8, 0x1f, 0xf0, 0x01, 0xf8, 0x1f, 0x1c, 0x38,
  0x00, 0x00, 0xc0, 0x01, 0x38, 0x07, 0xfc, 0x3f,
  0x9c, 0x01, 0x80, 0x03, 0xf0, 0x00, 0x00, 0x00,
  0xe0, 0x00, 0x00, 0x07, 0xf8, 0x1f, 0xc0, 0x01,
  0x00, 0x00, 0x00, 0x00, 0x00, 0x00, 0x00, 0x07,
  0x1c, 0x3e, 0xc0, 0x01, 0x00, 0x38, 0x00, 0x38,
  0x70, 0x0e, 0xfc, 0x1f, 0x1c, 0x00, 0x00, 0x1c,
  0x1c, 0x38, 0x1c, 0x38, 0xc0, 0x01, 0xc0, 0x01,
  0xe0, 0x01, 0xf8, 0x1f, 0x80, 0x07, 0x00, 0x38,
  0x9c, 0x3f, 0x38, 0x1c, 0x1c, 0x38, 0x1c, 0x00,
  0x1c, 0x38, 0x1c, 0x00, 0x1c, 0x00, 0x1c, 0x00,
  0x1c, 0x38, 0xc0, 0x01, 0x00, 0x38, 0x9c, 0x03,
  0x1c, 0x00, 0x7c, 0x3e, 0xfc, 0x38, 0x1c, 0x38,
  0x1c, 0x38, 0x1c, 0x38, 0x1c, 0x38, 0x1c, 0x00,
  0xc0, 0x01, 0x1c, 0x38, 0x38, 0x1c, 0x1c, 0x38,
  0xe0, 0x07, 0xf0, 0x07, 0x00, 0x07, 0xe0, 0x00,
  0xf8, 0x1f, 0x00, 0x07, 0xf0, 0x01, 0xf8, 0x1f,
  0x1c, 0x38, 0xf8, 0x1f, 0xfc, 0x1f, 0xf8, 0x3f,
  0xf8, 0x3f, 0xf8, 0x1f, 0xf0, 0x3f, 0xf8, 0x3f,
  0xfc, 0x1f, 0xf0, 0x01, 0xf8, 0x01, 0x1c, 0x3c,
  0xc0, 0x01, 0xfc, 0x1f, 0xfc, 0x1f, 0xf8, 0x1f,
  0xfc, 0x1f, 0xf8, 0x3f, 0xfc, 0x1f, 0xf8, 0x3f,
  0xf8, 0x07, 0x1c, 0x38, 0x1c, 0x70, 0x1c, 0x38,
  0x1c, 0x38, 0x1c, 0x38, 0xfc, 0x3f, 0xf8, 0x3f,
  0xc0, 0x01, 0xfc, 0x38, 0xfc, 0x1f, 0xfc, 0x3f,
  0x00, 0x00, 0x00, 0x00, 0x00, 0x00, 0x00, 0x00,
  0x00, 0x00, 0x00, 0x00, 0xf8, 0x1f, 0xf8, 0x1f,
  0xf0, 0x01, 0xf8, 0x1f, 0x1c, 0x38, 0xf8, 0x3f,
  0xc0, 0x01, 0xfc, 0x38, 0xfc, 0x1f, 0xfc, 0x3f,
  0xee, 0x73, 0x70, 0x0e, 0x98, 0x03, 0xc0, 0x01,
  0x30, 0x33, 0xf8, 0x3f, 0xe0, 0x00, 0x60, 0x30,
  0xf8, 0x1f, 0x00, 0x00, 0xf8, 0x1f, 0xf8, 0x1f,
  0xf8, 0x1f, 0xf0, 0x01, 0xf8, 0x1f, 0x1c, 0x38,
  0x00, 0x00, 0xc0, 0x01, 0x38, 0x07, 0xfc, 0x3f,
  0x9c, 0x01, 0x80, 0x03, 0xf0, 0x00, 0x00, 0x00,
  0xe0, 0x00, 0x00, 0x07, 0xf8, 0x1f, 0xc0, 0x01,
  0x00, 0x00, 0x00, 0x00, 0x00, 0x00, 0x00, 0x07,
  0x1c, 0x3e, 0xc0, 0x01, 0x00, 0x38, 0x00, 0x38,
  0x70, 0x0e, 0xfc, 0x1f, 0x1c, 0x00, 0x00, 0x1c,
  0x1c, 0x38, 0x1c, 0x38, 0xc0, 0x01, 0xc0, 0x01,
  0xe0, 0x01, 0xf8, 0x1f, 0x80, 0x07, 0x00, 0x38,
  0x9c, 0x3f, 0x38, 0x1c, 0x1c, 0x38, 0x1c, 0x00,
  0x1c, 0x38, 0x1c, 0x00, 0x1c, 0x00, 0x1c, 0x00,
  0x1c, 0x38, 0xc0, 0x01, 0x00, 0x38, 0x9c, 0x03,
  0x1c, 0x00, 0x7c, 0x3e, 0xfc, 0x38, 0x1c, 0x38,
  0x1c, 0x38, 0x1c, 0x38, 0x1c, 0x38, 0x1c, 0x00,
  0xc0, 0x01, 0x1c, 0x38, 0x38, 0x0e, 0x1c, 0x38,
  0xe0, 0x07, 0x78, 0x0f, 0x00, 0x07, 0xe0, 0x00,
  0xf8, 0x1f, 0x00, 0x07, 0xf0, 0x01, 0xf8, 0x1f,
  0x1c, 0x38, 0xf8, 0x1f, 0xfc, 0x1f, 0xf8, 0x3f,
  0xf8, 0x3f, 0xf8, 0x1f, 0xf0, 0x3f, 0xf8, 0x3f,
  0xfc, 0x1f, 0xf0, 0x01, 0xf8, 0x01, 0x1c, 0x3c,
  0xc0, 0x01, 0xfc, 0x1f, 0xfc, 0x1f, 0xf8, 0x1f,
  0xfc, 0x1f, 0xf8, 0x3f, 0xfc, 0x1f, 0xf8, 0x3f,
  0xf8, 0x07, 0x1c, 0x38, 0x1c, 0x70, 0x1c, 0x38,
  0x1c, 0x38, 0x1c, 0x38, 0xfc, 0x3f, 0xf8, 0x3f,
  0xc0, 0x01, 0xfc, 0x38, 0xfc, 0x1f, 0xfc, 0x3f,
  0x00, 0x00, 0x00, 0x00, 0x00, 0x00, 0x00, 0x00,
  0x00, 0x00, 0x00, 0x00, 0x00, 0x38, 0x1c, 0x38,
  0xc0, 0x01, 0x1c, 0x38, 0x1c, 0x38, 0x1c, 0x00,
  0x00, 0x00, 0xdc, 0x3b, 0x1c, 0x38, 0xfc, 0x3f,
  0x6e, 0x76, 0xe0, 0x07, 0xd8, 0x1f, 0xf0, 0x00,
  0x30, 0x33, 0x9c, 0x01, 0xf8, 0x07, 0x60, 0x30,
  0x00, 0x38, 0x00, 0x00, 0x1c, 0x38, 0x00, 0x38,
  0x1c, 0x38, 0xc0, 0x01, 0x1c, 0x38, 0x1c, 0x38,
  0x00, 0x00, 0xc0, 0x01, 0x00, 0x00, 0x70, 0x0e,
  0xf8, 0x1f, 0xc0, 0x01, 0xb8, 0x3b, 0x00, 0x00,
  0xe0, 0x00, 0x00, 0x07, 0x00, 0x38, 0xfc, 0x1f,
  0x00, 0x00, 0xf8, 0x1f, 0x00, 0x00, 0x80, 0x03,
  0xdc, 0x3b, 0xc0, 0x01, 0x00, 0x1e, 0x80, 0x1f,
  0x1c, 0x0e, 0x00, 0x38, 0xfc, 0x1f, 0x00, 0x0e,
  0xf8, 0x1f, 0xf8, 0x3f, 0xc0, 0x01, 0xc0, 0x01,
  0x3c, 0x00, 0x00, 0x00, 0x00, 0x3c, 0x00, 0x0f,
  0xdc, 0x39, 0x1c, 0x38, 0xfc, 0x1f, 0x1c, 0x00,
  0x1c, 0x38, 0xfc, 0x07, 0xfc, 0x07, 0x1c, 0x3e,
  0xfc, 0x3f, 0xc0, 0x01, 0x00, 0x38, 0xfc, 0x00,
  0x1c, 0x00, 0xfc, 0x3f, 0xdc, 0x3b, 0x1c, 0x38,
  0xfc, 0x1f, 0x1c, 0x38, 0xfc, 0x1f, 0xf8, 0x1f,
  0xc0, 0x01, 0x1c, 0x38, 0x70, 0x0e, 0x9c, 0x39,
  0xc0, 0x03, 0xe0, 0x03, 0xc0, 0x01, 0xe0, 0x00,
  0x1c, 0x38, 0x00, 0x07, 0xc0, 0x01, 0x1c, 0x38,
  0x1c, 0x38, 0x00, 0x38, 0x1c, 0x38, 0x1c, 0x00,
  0x1c, 0x38, 0x1c, 0x38, 0x80, 0x03, 0x1c, 0x38,
  0x1c, 0x38, 0xc0, 0x01, 0xc0, 0x01, 0x9c, 0x07,
  0xc0, 0x01, 0x9c, 0x39, 0x1c, 0x38, 0x1c, 0x38,
  0x1c, 0x38, 0x1c, 0x38, 0x1c, 0x38, 0x1c, 0x00,
  0xe0, 0x00, 0x1c, 0x38, 0x38, 0x38, 0x9c, 0x39,
  0x70, 0x0e, 0x1c, 0x38, 0x00, 0x0e, 0x1c, 0x00,
  0x00, 0x00, 0xdc, 0x3b, 0x1c, 0x38, 0xfc, 0x3f,
  0x00, 0x00, 0x00, 0x00, 0x00, 0x00, 0x00, 0x00,
  0x00, 0x00, 0x00, 0x00, 0x00, 0x38, 0x1c, 0x38,
  0xc0, 0x01, 0x1c, 0x38, 0x1c, 0x38, 0x1c, 0x00,
  0x00, 0x00, 0xdc, 0x3b, 0x1c, 0x38, 0xfc, 0x3f,
  0x6e, 0x76, 0xe0, 0x07, 0xd8, 0x1f, 0xf0, 0x00,
  0x30, 0x33, 0x9c, 0x01, 0xf8, 0x07, 0x60, 0x30,
  0x00, 0x38, 0x00, 0x00, 0x1c, 0x38, 0x00, 0x38,
  0x1c, 0x38, 0xc0, 0x01, 0x1c, 0x38, 0x1c, 0x38,
  0x00, 0x00, 0xc0, 0x01, 0x00, 0x00, 0x70, 0x0e,
  0xf8, 0x1f, 0xc0, 0x01, 0xb8, 0x3b, 0x00, 0x00,
  0xe0, 0x00, 0x00, 0x07, 0x00, 0x38, 0xfc, 0x1f,
  0x00, 0x00, 0xf8, 0x1f, 0x00, 0x00, 0x80, 0x03,
  0xdc, 0x3b, 0xc0, 0x01, 0x00, 0x1e, 0x80, 0x1f,
  0x1c, 0x0e, 0x00, 0x38, 0xfc, 0x1f, 0x00, 0x0e,
  0xf8, 0x1f, 0xf8, 0x3f, 0xc0, 0x01, 0xc0, 0x01,
  0x3c, 0x00, 0x00, 0x00, 0x00, 0x3c, 0x00, 0x0f,
  0xdc, 0x39, 0x1c, 0x38, 0xfc, 0x1f, 0x1c, 0x00,
  0x1c, 0x38, 0xfc, 0x07, 0xfc, 0x07, 0x1c, 0x3e,
  0xfc, 0x3f, 0xc0, 0x01, 0x00, 0x38, 0xfc, 0x00,
  0x1c, 0x00, 0xfc, 0x3f, 0xdc, 0x3b, 0x1c, 0x38,
  0xfc, 0x1f, 0x1c, 0x38, 0xfc, 0x1f, 0xf8, 0x1f,
  0xc0, 0x01, 0x1c, 0x38, 0x70, 0x07, 0x9c, 0x39,
  0xc0, 0x03, 0xe0, 0x03, 0xc0, 0x01, 0xe0, 0x00,
  0x1c, 0x38, 0x00, 0x07, 0xc0, 0x01, 0x1c, 0x38,
  0x1c, 0x38, 0x00, 0x38, 0x1c, 0x38, 0x1c, 0x00,
  0x1c, 0x38, 0x1c, 0x38, 0x80, 0x03, 0x1c, 0x38,
  0x1c, 0x38, 0xc0, 0x01, 0xc0, 0x01, 0x9c, 0x07,
  0xc0, 0x01, 0x9c, 0x39, 0x1c, 0x38, 0x1c, 0x38,
  0x1c, 0x38, 0x1c, 0x38, 0x1c, 0x38, 0x1c, 0x00,
  0xe0, 0x00, 0x1c, 0x38, 0x38, 0x38, 0x9c, 0x39,
  0x70, 0x0e, 0x1c, 0x38, 0x00, 0x0e, 0x1c, 0x00,
  0x00, 0x00, 0xdc, 0x3b, 0x1c, 0x38, 0xfc, 0x3f,
  0x00, 0x00, 0x00, 0x00, 0x00, 0x00, 0x00, 0x00,
  0x00, 0x00, 0x00, 0x00, 0xf8, 0x3f, 0xfc, 0x3f,
  0xc0, 0x01, 0x1c, 0x38, 0x1c, 0x38, 0x1c, 0x00,
  0xfc, 0x1f, 0x1c, 0x3f, 0x1c, 0x38, 0xfc, 0x3f,
  0xee, 0x73, 0x00, 0x00, 0xe0, 0x38, 0x1c, 0x00,
  0x00, 0x00, 0x9c, 0x01, 0xe0, 0x00, 0x78, 0x3c,
  0xf8, 0x3f, 0x00, 0x00, 0xfc, 0x3f, 0xf8, 0x3f,
  0xfc, 0x3f, 0xc0, 0x01, 0x1c, 0x38, 0x1c, 0x38,
  0x00, 0x00, 0xc0, 0x01, 0x00, 0x00, 0xfc, 0x3f,
  0x80, 0x39, 0xe0, 0x3c, 0x1c, 0x0e, 0x00, 0x00,
  0xe0, 0x00, 0x00, 0x07, 0xf8, 0x3f, 0xc0, 0x01,
  0x00, 0x00, 0x00, 0x00, 0x00, 0x00, 0xc0, 0x01,
  0x7c, 0x38, 0xc0, 0x01, 0xc0, 0x03, 0x00, 0x38,
  0xfc, 0x3f, 0x00, 0x38, 0x1c, 0x38, 0x00, 0x07,
  0x1c, 0x38, 0x00, 0x38, 0x00, 0x00, 0x00, 0x00,
  0xe0, 0x01, 0xf8, 0x1f, 0x80, 0x07, 0x80, 0x03,
  0x9c, 0x3f, 0xfc, 0x3f, 0x1c, 0x38, 0x1c, 0x00,
  0x1c, 0x38, 0x1c, 0x00, 0x1c, 0x00, 0x1c, 0x38,
  0x1c, 0x38, 0xc0, 0x01, 0x00, 0x38, 0x9c, 0x03,
  0x1c, 0x00, 0xdc, 0x3b, 0x1c, 0x3f, 0x1c, 0x38,
  0x1c, 0x00, 0x1c, 0x3e, 0x1c, 0x0e, 0x00, 0x38,
  0xc0, 0x01, 0x1c, 0x38, 0xe0, 0x07, 0xf8, 0x1f,
  0xe0, 0x07, 0xc0, 0x01, 0x70, 0x00, 0xe0, 0x00,
  0xfc, 0x3f, 0x00, 0x07, 0xc0, 0x01, 0x1c, 0x38,
  0x1c, 0x38, 0xf8, 0x3f, 0x1c, 0x38, 0x1c, 0x00,
  0x1c, 0x38, 0xfc, 0x3f, 0x80, 0x03, 0x1c, 0x38,
  0x1c, 0x38, 0xc0, 0x01, 0xc0, 0x01, 0xfc, 0x00,
  0xc0, 0x01, 0x9c, 0x39, 0x1c, 0x38, 0x1c, 0x38,
  0x1c, 0x38, 0x1c, 0x38, 0x1c, 0x00, 0xf8, 0x1f,
  0xe0, 0x00, 0x1c, 0x38, 0x70, 0x1c, 0xdc, 0x3b,
  0xc0, 0x03, 0x1c, 0x38, 0xc0, 0x03, 0x1c, 0x00,
  0xfc, 0x1f, 0x1c, 0x3f, 0x1c, 0x38, 0xfc, 0x3f,
  0x00, 0x00, 0x00, 0x00, 0x00, 0x00, 0x00, 0x00,
  0x00, 0x00, 0x00, 0x00, 0xf8, 0x3f, 0xfc, 0x3f,
  0xc0, 0x01, 0x1c, 0x38, 0x1c, 0x38, 0x1c, 0x00,
  0xfc, 0x1f, 0x1c, 0x3f, 0x1c, 0x38, 0xfc, 0x3f,
  0xee, 0x73, 0x00, 0x00, 0xe0, 0x38, 0x1c, 0x00,
  0x00, 0x00, 0x9c, 0x01, 0xe0, 0x00, 0x78, 0x3c,
  0xf8, 0x3f, 0x00, 0x00, 0xfc, 0x3f, 0xf8, 0x3f,
  0xfc, 0x3f, 0xc0, 0x01, 0x1c, 0x38, 0x1c, 0x38,
  0x00, 0x00, 0xc0, 0x01, 0x00, 0x00, 0xfc, 0x3f,
  0x80, 0x39, 0xe0, 0x3c, 0x1c, 0x0e, 0x00, 0x00,
  0xe0, 0x00, 0x00, 0x07, 0xf8, 0x3f, 0xc0, 0x01,
  0x00, 0x00, 0x00, 0x00, 0x00, 0x00, 0xc0, 0x01,
  0x7c, 0x38, 0xc0, 0x01, 0xc0, 0x03, 0x00, 0x38,
  0xfc, 0x3f, 0x00, 0x38, 0x1c, 0x38, 0x00, 0x07,
  0x1c, 0x38, 0x00, 0x38, 0x00, 0x00, 0x00, 0x00,
  0xe0, 0x01, 0xf8, 0x1f, 0x80, 0x07, 0x80, 0x03,
  0x9c, 0x3f, 0xfc, 0x3f, 0x1c, 0x38, 0x1c, 0x00,
  0x1c, 0x38, 0x1c, 0x00, 0x1c, 0x00, 0x1c, 0x38,
  0x1c, 0x38, 0xc0, 0x01, 0x00, 0x38, 0x9c, 0x03,
  0x1c, 0x00, 0xdc, 0x3b, 0x1c, 0x3f, 0x1c, 0x38,
  0x1c, 0x00, 0x1c, 0x3e, 0x1c, 0x0e, 0x00, 0x38,
  0xc0, 0x01, 0x1c, 0x38, 0xe0, 0x03, 0xf8, 0x1f,
  0xe0, 0x07, 0xc0, 0x01, 0x70, 0x00, 0xe0, 0x00,
  0xfc, 0x3f, 0x00, 0x07, 0xc0, 0x01, 0x1c, 0x38,
  0x1c, 0x38, 0xf8, 0x3f, 0x1c, 0x38, 0x1c, 0x00,
  0x1c, 0x38, 0xfc, 0x3f, 0x80, 0x03, 0x1c, 0x38,
  0x1c, 0x38, 0xc0, 0x01, 0xc0, 0x01, 0xfc, 0x00,
  0xc0, 0x01, 0x9c, 0x39, 0x1c, 0x38, 0x1c, 0x38,
  0x1c, 0x38, 0x1c, 0x38, 0x1c, 0x00, 0xf8, 0x1f,
  0xe0, 0x00, 0x1c, 0x38, 0x70, 0x1c, 0xdc, 0x3b,
  0xc0, 0x03, 0x1c, 0x38, 0xc0, 0x03, 0x1c, 0x00,
  0xfc, 0x1f, 0x1c, 0x3f, 0x1c, 0x38, 0xfc, 0x3f,
  0x00, 0x00, 0x00, 0x00, 0x00, 0x00, 0x00, 0x00,
  0x00, 0x00, 0x00, 0x00, 0x1c, 0x38, 0x1c, 0x00,
  0xc0, 0x01, 0x1c, 0x38, 0x1c, 0x38, 0x1c, 0x00,
  0x00, 0x00, 0x1c, 0x3c, 0x1c, 0x38, 0xfc, 0x3f,
  0x6e, 0x76, 0x00, 0x00, 0x70, 0x0c, 0x1c, 0x38,
  0x00, 0x00, 0x9c, 0x01, 0xf8, 0x3c, 0x7c, 0x3e,
  0x1c, 0x38, 0x00, 0x00, 0x1c, 0x00, 0x1c, 0x38,
  0x1c, 0x00, 0xc0, 0x01, 0x1c, 0x38, 0x1c, 0x38,
  0x00, 0x00, 0x00, 0x00, 0x00, 0x00, 0x38, 0x07,
  0x9c, 0x39, 0x70, 0x6e, 0x1c, 0x0e, 0x00, 0x00,
  0xc0, 0x01, 0x80, 0x03, 0x1c, 0x38, 0xc0, 0x01,
  0xc0, 0x01, 0x00, 0x00, 0xc0, 0x01, 0xe0, 0x00,
  0x1c, 0x38, 0xc0, 0x01, 0x70, 0x00, 0x1c, 0x38,
  0x00, 0x0e, 0x1c, 0x38, 0x1c, 0x38, 0x80, 0x03,
  0x1c, 0x38, 0x1c, 0x38, 0xc0, 0x01, 0xc0, 0x01,
  0x00, 0x0f, 0x00, 0x00, 0xf0, 0x00, 0x00, 0x00,
  0x38, 0x00, 0x1c, 0x38, 0x1c, 0x38, 0x38, 0x38,
  0x1c, 0x1c, 0x1c, 0x00, 0x1c, 0x00, 0x38, 0x38,
  0x1c, 0x38, 0xc0, 0x01, 0x1c, 0x38, 0x1c, 0x0e,
  0x1c, 0x00, 0x9c, 0x39, 0x1c, 0x3c, 0x38, 0x1c,
  0x1c, 0x00, 0x38, 0x1c, 0x1c, 0x1c, 0x1c, 0x38,
  0xc0, 0x01, 0x1c, 0x38, 0xc0, 0x03, 0x78, 0x1e,
  0x38, 0x1c, 0xc0, 0x01, 0x1c, 0x00, 0xe0, 0x00,
  0x1c, 0x00, 0x00, 0x07, 0xc0, 0x01, 0x1c, 0x38,
  0x1c, 0x38, 0x1c, 0x38, 0x1c, 0x38, 0x1c, 0x00,
  0x1c, 0x38, 0x1c, 0x00, 0x80, 0x03, 0x1c, 0x38,
  0x1c, 0x38, 0xc0, 0x01, 0xc0, 0x01, 0x9c, 0x07,
  0xc0, 0x01, 0x9c, 0x39, 0x1c, 0x38, 0x1c, 0x38,
  0x1c, 0x38, 0x1c, 0x38, 0x1c, 0x00, 0x00, 0x38,
  0xe0, 0x00, 0x1c, 0x38, 0xe0, 0x0e, 0x78, 0x1e,
  0x70, 0x0e, 0x1c, 0x38, 0x70, 0x00, 0x1c, 0x00,
  0x00, 0x00, 0x1c, 0x3c, 0x1c, 0x38, 0xfc, 0x3f,
  0x00, 0x00, 0x00, 0x00, 0x00, 0x00, 0x00, 0x00,
  0x00, 0x00, 0x00, 0x00, 0x0e, 0x1c, 0x0e, 0x00,
  0xe0, 0x00, 0x0e, 0x1c, 0x0e, 0x1c, 0x0e, 0x00,
  0x00, 0x00, 0x0e, 0x1e, 0x0e, 0x1c, 0xfe, 0x1f,
  0x37, 0x3b, 0x00, 0x00, 0x38, 0x06, 0x0e, 0x1c,
  0x00, 0x00, 0xce, 0x00, 0x7c, 0x1e, 0x3e, 0x1f,
  0x0e, 0x1c, 0x00, 0x00, 0x0e, 0x00, 0x0e, 0x1c,
  0x0e, 0x00, 0xe0, 0x00, 0x0e, 0x1c, 0x0e, 0x1c,
  0x00, 0x00, 0x00, 0x00, 0x00, 0x00, 0x9c, 0x03,
  0xce, 0x1c, 0x38, 0x37, 0x0e, 0x07, 0x00, 0x00,
  0xe0, 0x00, 0xc0, 0x01, 0x0e, 0x1c, 0xe0, 0x00,
  0xe0, 0x00, 0x00, 0x00, 0xe0, 0x00, 0x70, 0x00,
  0x0e, 0x1c, 0xe0, 0x00, 0x38, 0x00, 0x0e, 0x1c,
  0x00, 0x07, 0x0e, 0x1c, 0x0e, 0x1c, 0xc0, 0x01,
  0x0e, 0x1c, 0x0e, 0x1c, 0xe0, 0x00, 0xe0, 0x00,
  0x80, 0x07, 0x00, 0x00, 0x78, 0x00, 0x00, 0x00,
  0x1c, 0x00, 0x0e, 0x1c, 0x0e, 0x1c, 0x1c, 0x1c,
  0x0e, 0x0e, 0x0e, 0x00, 0x0e, 0x00, 0x1c, 0x1c,
  0x0e, 0x1c, 0xe0, 0x00, 0x0e, 0x1c, 0x0e, 0x07,
  0x0e, 0x00, 0xce, 0x1c, 0x0e, 0x1e, 0x1c, 0x0e,
  0x0e, 0x00, 0x1c, 0x0e, 0x0e, 0x0e, 0x0e, 0x1c,
  0xe0, 0x00, 0x0e, 0x1c, 0xe0, 0x00, 0x3c, 0x0f,
  0x1c, 0x0e, 0xe0, 0x00, 0x0e, 0x00, 0x70, 0x00,
  0x0e, 0x00, 0x80, 0x03, 0xe0, 0x00, 0x0e, 0x1c,
  0x0e, 0x1c, 0x0e, 0x1c, 0x0e, 0x1c, 0x0e, 0x00,
  0x0e, 0x1c, 0x0e, 0x00, 0xc0, 0x01, 0x0e, 0x1c,
  0x0e, 0x1c, 0xe0, 0x00, 0xe0, 0x00, 0xce, 0x03,
  0xe0, 0x00, 0xce, 0x1c, 0x0e, 0x1c, 0x0e, 0x1c,
  0x0e, 0x1c, 0x0e, 0x1c, 0x0e, 0x00, 0x00, 0x1c,
  0x70, 0x00, 0x0e, 0x1c, 0x70, 0x07, 0x3c, 0x0f,
  0x38, 0x07, 0x0e, 0x1c, 0x38, 0x00, 0x0e, 0x00,
  0x00, 0x00, 0x0e, 0x1e, 0x0e, 0x1c, 0xfe, 0x1f,
  0x00, 0x00, 0x00, 0x00, 0x00, 0x00, 0x00, 0x00,
  0x00, 0x00, 0x00, 0x00, 0xf8, 0x3f, 0xf8, 0x1f,
  0xf0, 0x07, 0xf8, 0x1f, 0xf8, 0x3f, 0xf8, 0x3f,
  0xc0, 0x01, 0x1c, 0x38, 0x1c, 0x38, 0xfc, 0x3f,
  0x1c, 0x38, 0x00, 0x00, 0x38, 0x3e, 0xf8, 0x1f,
  0x00, 0x00, 0xf8, 0x3f, 0xf8, 0x0f, 0x78, 0x3c,
  0xf8, 0x3f, 0x00, 0x00, 0xf8, 0x1f, 0xf8, 0x3f,
  0xf8, 0x1f, 0xf0, 0x07, 0xf8, 0x1f, 0xf8, 0x3f,
  0x00, 0x00, 0xc0, 0x01, 0x00, 0x00, 0x38, 0x07,
  0xf8, 0x1f, 0x38, 0x3c, 0xf8, 0x3b, 0x00, 0x00,
  0x80, 0x03, 0xc0, 0x01, 0xf8, 0x3f, 0x00, 0x00,
  0xc0, 0x01, 0x00, 0x00, 0xc0, 0x01, 0x70, 0x00,
  0xf8, 0x1f, 0xf0, 0x07, 0xfc, 0x3f, 0xf8, 0x1f,
  0x80, 0x3f, 0xf8, 0x1f, 0xf8, 0x1f, 0xc0, 0x01,
  0xf8, 0x1f, 0xf8, 0x1f, 0xc0, 0x01, 0xc0, 0x01,
  0x00, 0x38, 0x00, 0x00, 0x1c, 0x00, 0x80, 0x03,
  0xe0, 0x0f, 0x1c, 0x38, 0xfc, 0x1f, 0xf0, 0x1f,
  0xfc, 0x0f, 0xfc, 0x3f, 0x1c, 0x00, 0xf0, 0x1f,
  0x1c, 0x38, 0xf0, 0x07, 0xf8, 0x1f, 0x1c, 0x38,
  0xfc, 0x3f, 0x1c, 0x38, 0x1c, 0x38, 0xf0, 0x0f,
  0x1c, 0x00, 0xf0, 0x37, 0x1c, 0x38, 0xf8, 0x1f,
  0xc0, 0x01, 0xf8, 0x1f, 0x80, 0x01, 0x38, 0x1c,
  0x1c, 0x38, 0xc0, 0x01, 0xfe, 0x3f, 0xe0, 0x00,
  0xf8, 0x1f, 0x00, 0x07, 0xf0, 0x07, 0xf8, 0x1f,
  0xf8, 0x3f, 0xf8, 0x3f, 0xfc, 0x1f, 0xf8, 0x3f,
  0xf8, 0x3f, 0xf8, 0x1f, 0x80, 0x03, 0xf8, 0x3f,
  0x1c, 0x38, 0xf0, 0x07, 0xc0, 0x01, 0x1c, 0x3c,
  0xf8, 0x0f, 0x9c, 0x39, 0x1c, 0x38, 0xf8, 0x1f,
  0xfc, 0x1f, 0xf8, 0x3f, 0x1c, 0x00, 0xfc, 0x1f,
  0xc0, 0x1f, 0xf8, 0x3f, 0xc0, 0x07, 0x38, 0x1c,
  0x1c, 0x38, 0xf8, 0x3f, 0xfc, 0x3f, 0xf8, 0x3f,
  0xc0, 0x01, 0x1c, 0x38, 0x1c, 0x38, 0xfc, 0x3f,
  0x00, 0x00, 0x00, 0x00, 0x00, 0x00, 0x00, 0x00,
  0x00, 0x00, 0x00, 0x00, 0xfc, 0x1f, 0xfc, 0x0f,
  0xf8, 0x03, 0xfc, 0x0f, 0xfc, 0x1f, 0xfc, 0x1f,
  0xe0, 0x00, 0x0e, 0x1c, 0x0e, 0x1c, 0xfe, 0x1f,
  0x0e, 0x1c, 0x00, 0x00, 0x1c, 0x1f, 0xfc, 0x0f,
  0x00, 0x00, 0xfc, 0x1f, 0xfc, 0x07, 0x3c, 0x1e,
  0xfc, 0x1f, 0x00, 0x00, 0xfc, 0x0f, 0xfc, 0x1f,
  0xfc, 0x0f, 0xf8, 0x03, 0xfc, 0x0f, 0xfc, 0x1f,
  0x00, 0x00, 0xe0, 0x00, 0x00, 0x00, 0x9c, 0x03,
  0xfc, 0x0f, 0x1c, 0x1e, 0xfc, 0x1d, 0x00, 0x00,
  0xc0, 0x01, 0xe0, 0x00, 0xfc, 0x1f, 0x00, 0x00,
  0xe0, 0x00, 0x00, 0x00, 0xe0, 0x00, 0x38, 0x00,
  0xfc, 0x0f, 0xf8, 0x03, 0xfe, 0x1f, 0xfc, 0x0f,
  0xc0, 0x1f, 0xfc, 0x0f, 0xfc, 0x0f, 0xe0, 0x00,
  0xfc, 0x0f, 0xfc, 0x0f, 0xe0, 0x00, 0xe0, 0x00,
  0x00, 0x1c, 0x00, 0x00, 0x0e, 0x00, 0xc0, 0x01,
  0xf0, 0x07, 0x0e, 0x1c, 0xfe, 0x0f, 0xf8, 0x0f,
  0xfe, 0x07, 0xfe, 0x1f, 0x0e, 0x00, 0xf8, 0x1f,
  0x0e, 0x1c, 0xf8, 0x03, 0xfc, 0x0f, 0x0e, 0x1c,
  0xfe, 0x1f, 0x0e, 0x1c, 0x0e, 0x1c, 0xf8, 0x07,
  0x0e, 0x00, 0xf8, 0x1b, 0x0e, 0x1c, 0xfc, 0x0f,
  0xe0, 0x00, 0xfc, 0x0f, 0x40, 0x00, 0x1c, 0x0e,
  0x0e, 0x1c, 0xe0, 0x00, 0xff, 0x1f, 0x70, 0x00,
  0xfc, 0x0f, 0x80, 0x03, 0xf8, 0x03, 0xfc, 0x0f,
  0xfc, 0x1f, 0xfc, 0x1f, 0xfe, 0x0f, 0xfc, 0x1f,
  0xfc, 0x1f, 0xfc, 0x0f, 0xc0, 0x01, 0xfc, 0x1f,
  0x0e, 0x1c, 0xf8, 0x03, 0xe0, 0x00, 0x0e, 0x1e,
  0xfc, 0x07, 0xce, 0x1c, 0x0e, 0x1c, 0xfc, 0x0f,
  0xfe, 0x0f, 0xfc, 0x1f, 0x0e, 0x00, 0xfe, 0x0f,
  0xe0, 0x0f, 0xfc, 0x1f, 0xe0, 0x03, 0x1c, 0x0e,
  0x0e, 0x1c, 0xfc, 0x1f, 0xfe, 0x1f, 0xfc, 0x1f,
  0xe0, 0x00, 0x0e, 0x1c, 0x0e, 0x1c, 0xfe, 0x1f,
  0x00, 0x00, 0x00, 0x00, 0x00, 0x00, 0x00, 0x00,
  0x00, 0x00, 0x00, 0x00, 0x00, 0x00, 0x00, 0x00,
  0x00, 0x00, 0x00, 0x00, 0x00, 0x00, 0x80, 0x03,
  0x00, 0x00, 0x00, 0x00, 0x00, 0x00, 0x00, 0x00,
  0xf8, 0x1f, 0x00, 0x00, 0x00, 0x00, 0x00, 0x00,
  0x00, 0x00, 0x80, 0x01, 0x00, 0x00, 0x00, 0x00,
  0x00, 0x00, 0x00, 0x00, 0x00, 0x00, 0x00, 0x00,
  0x00, 0x00, 0x00, 0x00, 0x00, 0x00, 0x00, 0x00,
  0x00, 0x00, 0x00, 0x00, 0x00, 0x00, 0x00, 0x00,
  0x80, 0x01, 0x00, 0x00, 0x00, 0x00, 0x00, 0x00,
  0x00, 0x07, 0xe0, 0x00, 0x00, 0x00, 0x00, 0x00,
  0xc0, 0x01, 0x00, 0x00, 0x00, 0x00, 0x00, 0x00,
  0x00, 0x00, 0x00, 0x00, 0x00, 0x00, 0x00, 0x00,
  0x00, 0x00, 0x00, 0x00, 0x00, 0x00, 0x00, 0x00,
  0x00, 0x00, 0x00, 0x00, 0x00, 0x00, 0xc0, 0x01,
  0x00, 0x00, 0x00, 0x00, 0x00, 0x00, 0x00, 0x00,
  0x00, 0x00, 0x00, 0x00, 0x00, 0x00, 0x00, 0x00,
  0x00, 0x00, 0x00, 0x00, 0x00, 0x00, 0x00, 0x00,
  0x00, 0x00, 0x00, 0x00, 0x00, 0x00, 0x00, 0x00,
  0x00, 0x00, 0x00, 0x00, 0x00, 0x00, 0x00, 0x00,
  0x00, 0x00, 0x00, 0x00, 0x00, 0x00, 0x00, 0x00,
  0x00, 0x00, 0x00, 0x00, 0x00, 0x00, 0x00, 0x00,
  0x00, 0x00, 0x00, 0x00, 0x00, 0x00, 0xe0, 0x07,
  0x00, 0x00, 0xe0, 0x07, 0x00, 0x00, 0x00, 0x00,
  0x00, 0x00, 0x00, 0x00, 0x00, 0x00, 0x00, 0x00,
  0x00, 0x00, 0x00, 0x00, 0x00, 0x00, 0x00, 0x38,
  0x00, 0x00, 0x00, 0x00, 0xc0, 0x01, 0x00, 0x00,
  0x00, 0x00, 0x00, 0x00, 0x00, 0x00, 0x00, 0x00,
  0x1c, 0x00, 0x00, 0x38, 0x00, 0x00, 0x00, 0x00,
  0x00, 0x00, 0x00, 0x00, 0x00, 0x00, 0x00, 0x00,
  0x00, 0x00, 0x00, 0x38, 0x00, 0x00, 0x80, 0x03,
  0x00, 0x00, 0x00, 0x00, 0x00, 0x00, 0x00, 0x00,
  0x00, 0x00, 0x00, 0x00, 0x00, 0x00, 0x00, 0x00,
  0x00, 0x00, 0x00, 0x00, 0x00, 0x00, 0x00, 0x00,
  0x00, 0x00, 0x00, 0x00, 0x00, 0x00, 0xc0, 0x01,
  0x00, 0x00, 0x00, 0x00, 0x00, 0x00, 0x00, 0x00,
  0xfc, 0x0f, 0x00, 0x00, 0x00, 0x00, 0x00, 0x00,
  0x00, 0x00, 0xc0, 0x00, 0x00, 0x00, 0x00, 0x00,
  0x00, 0x00, 0x00, 0x00, 0x00, 0x00, 0x00, 0x00,
  0x00, 0x00, 0x00, 0x00, 0x00, 0x00, 0x00, 0x00,
  0x00, 0x00, 0x00, 0x00, 0x00, 0x00, 0x00, 0x00,
  0xc0, 0x00, 0x00, 0x00, 0x00, 0x00, 0x00, 0x00,
  0x80, 0x03, 0x70, 0x00, 0x00, 0x00, 0x00, 0x00,
  0xe0, 0x00, 0x00, 0x00, 0x00, 0x00, 0x00, 0x00,
  0x00, 0x00, 0x00, 0x00, 0x00, 0x00, 0x00, 0x00,
  0x00, 0x00, 0x00, 0x00, 0x00, 0x00, 0x00, 0x00,
  0x00, 0x00, 0x00, 0x00, 0x00, 0x00, 0xe0, 0x00,
  0x00, 0x00, 0x00, 0x00, 0x00, 0x00, 0x00, 0x00,
  0x00, 0x00, 0x00, 0x00, 0x00, 0x00, 0x00, 0x00,
  0x00, 0x00, 0x00, 0x00, 0x00, 0x00, 0x00, 0x00,
  0x00, 0x00, 0x00, 0x00, 0x00, 0x00, 0x00, 0x00,
  0x00, 0x00, 0x00, 0x00, 0x00, 0x00, 0x00, 0x00,
  0x00, 0x00, 0x00, 0x00, 0x00, 0x00, 0x00, 0x00,
  0x00, 0x00, 0x00, 0x00, 0x00, 0x00, 0x00, 0x00,
  0x00, 0x00, 0x00, 0x00, 0x00, 0x00, 0xf0, 0x03,
  0x00, 0x00, 0xf0, 0x03, 0x00, 0x00, 0x00, 0x00,
  0x00, 0x00, 0x00, 0x00, 0x00, 0x00, 0x00, 0x00,
  0x00, 0x00, 0x00, 0x00, 0x00, 0x00, 0x00, 0x1c,
  0x00, 0x00, 0x00, 0x00, 0xe0, 0x00, 0x00, 0x00,
  0x00, 0x00, 0x00, 0x00, 0x00, 0x00, 0x00, 0x00,
  0x0e, 0x00, 0x00, 0x1c, 0x00, 0x00, 0x00, 0x00,
  0x00, 0x00, 0x00, 0x00, 0x00, 0x00, 0x00, 0x00,
  0x00, 0x00, 0x00, 0x1c, 0x00, 0x00, 0xc0, 0x01,
  0x00, 0x00, 0x00, 0x00, 0x00, 0x00, 0x00, 0x00,
  0x00, 0x00, 0x00, 0x00, 0x00, 0x00, 0x00, 0x00,
  0x00, 0x00, 0x00, 0x00, 0x00, 0x00, 0x00, 0x00,
  0x00, 0x00, 0x00, 0x00, 0x00, 0x00, 0xe0, 0x01,
  0x00, 0x00, 0x00, 0x00, 0x00, 0x00, 0x00, 0x00,
  0x00, 0x00, 0x00, 0x00, 0x00, 0x00, 0x00, 0x00,
  0x00, 0x00, 0x00, 0x00, 0x00, 0x00, 0x00, 0x00,
  0x00, 0x00, 0x00, 0x00, 0x00, 0x00, 0x00, 0x00,
  0x00, 0x00, 0x00, 0x00, 0x00, 0x00, 0x00, 0x00,
  0x00, 0x00, 0x00, 0x00, 0x00, 0x00, 0x00, 0x00,
  0x00, 0x00, 0x00, 0x00, 0x00, 0x00, 0x00, 0x00,
  0x00, 0x00, 0x00, 0x00, 0x00, 0x00, 0x00, 0x00,
  0xe0, 0x00, 0x00, 0x00, 0x00, 0x00, 0x00, 0x00,
  0x00, 0x00, 0x00, 0x00, 0x00, 0x00, 0x00, 0x00,
  0x00, 0x00, 0x00, 0x00, 0x00, 0x00, 0x00, 0x00,
  0x00, 0x00, 0x00, 0x00, 0x00, 0x00, 0xe0, 0x00,
  0x00, 0x00, 0x00, 0x00, 0x00, 0x00, 0x00, 0x00,
  0x00, 0x00, 0x00, 0x00, 0x00, 0x00, 0x00, 0x00,
  0x00, 0x00, 0x00, 0x00, 0x00, 0x00, 0x00, 0x00,
  0x00, 0x00, 0x00, 0x00, 0x00, 0x00, 0x00, 0x00,
  0x00, 0x00, 0x00, 0x00, 0x00, 0x00, 0x00, 0x00,
  0x00, 0x00, 0x00, 0x00, 0x00, 0x00, 0x00, 0x00,
  0x00, 0x00, 0x00, 0x00, 0x00, 0x00, 0x00, 0x00,
  0x00, 0x00, 0x00, 0x00, 0x00, 0x00, 0x00, 0x00,
  0x00, 0x00, 0x00, 0x00, 0x00, 0x00, 0x00, 0x00,
  0x00, 0x00, 0x00, 0x00, 0x00, 0x00, 0x00, 0x00,
  0x00, 0x00, 0x00, 0x00, 0x00, 0x00, 0xf8, 0x1f,
  0x00, 0x00, 0x00, 0x00, 0xfc, 0x00, 0x00, 0x00,
  0x00, 0x00, 0x00, 0x00, 0x00, 0x00, 0x00, 0x00,
  0x1c, 0x00, 0x00, 0x38, 0x00, 0x00, 0x00, 0x00,
  0x00, 0x00, 0x00, 0x00, 0x00, 0x00, 0x00, 0x00,
  0x00, 0x00, 0xf8, 0x1f, 0x00, 0x00, 0xe0, 0x01,
  0x00, 0x00, 0x00, 0x00, 0x00, 0x00, 0x00, 0x00,
  0x00, 0x00, 0x00, 0x00, 0x00, 0x00, 0x00, 0x00,
  0x00, 0x00, 0x00, 0x00, 0x00, 0x00, 0x00, 0x00,
  0x00, 0x00, 0x00, 0x00, 0x00, 0x00, 0xf0, 0x00,
  0x00, 0x00, 0x00, 0x00, 0x00, 0x00, 0x00, 0x00,
  0x00, 0x00, 0x00, 0x00, 0x00, 0x00, 0x00, 0x00,
  0x00, 0x00, 0x00, 0x00, 0x00, 0x00, 0x00, 0x00,
  0x00, 0x00, 0x00, 0x00, 0x00, 0x00, 0x00, 0x00,
  0x00, 0x00, 0x00, 0x00, 0x00, 0x00, 0x00, 0x00,
  0x00, 0x00, 0x00, 0x00, 0x00, 0x00, 0x00, 0x00,
  0x00, 0x00, 0x00, 0x00, 0x00, 0x00, 0x00, 0x00,
  0x00, 0x00, 0x00, 0x00, 0x00, 0x00, 0x00, 0x00,
  0x70, 0x00, 0x00, 0x00, 0x00, 0x00, 0x00, 0x00,
  0x00, 0x00, 0x00, 0x00, 0x00, 0x00, 0x00, 0x00,
  0x00, 0x00, 0x00, 0x00, 0x00, 0x00, 0x00, 0x00,
  0x00, 0x00, 0x00, 0x00, 0x00, 0x00, 0x70, 0x00,
  0x00, 0x00, 0x00, 0x00, 0x00, 0x00, 0x00, 0x00,
  0x00, 0x00, 0x00, 0x00, 0x00, 0x00, 0x00, 0x00,
  0x00, 0x00, 0x00, 0x00, 0x00, 0x00, 0x00, 0x00,
  0x00, 0x00, 0x00, 0x00, 0x00, 0x00, 0x00, 0x00,
  0x00, 0x00, 0x00, 0x00, 0x00, 0x00, 0x00, 0x00,
  0x00, 0x00, 0x00, 0x00, 0x00, 0x00, 0x00, 0x00,
  0x00, 0x00, 0x00, 0x00, 0x00, 0x00, 0x00, 0x00,
  0x00, 0x00, 0x00, 0x00, 0x00, 0x00, 0x00, 0x00,
  0x00, 0x00, 0x00, 0x00, 0x00, 0x00, 0x00, 0x00,
  0x00, 0x00, 0x00, 0x00, 0x00, 0x00, 0x00, 0x00,
  0x00, 0x00, 0x00, 0x00, 0x00, 0x00, 0xfc, 0x0f,
  0x00, 0x00, 0x00, 0x00, 0x7e, 0x00, 0x00, 0x00,
  0x00, 0x00, 0x00, 0x00, 0x00, 0x00, 0x00, 0x00,
  0x0e, 0x00, 0x00, 0x1c, 0x00, 0x00, 0x00, 0x00,
  0x00, 0x00, 0x00, 0x00, 0x00, 0x00, 0x00, 0x00,
  0x00, 0x00, 0xfc, 0x0f, 0x00, 0x00, 0xf0, 0x00,
  0x00, 0x00, 0x00, 0x00, 0x00, 0x00, 0x00, 0x00,
  0x00, 0x00, 0x00, 0x00, 0x00, 0x00, 0x00, 0x00,
  0x00, 0x00, 0x00, 0x00, 0x00, 0x00, 0x00, 0x00,
  0x00, 0x00, 0x00, 0x00, 0x00, 0x00, 0x00, 0x00,
  0x00, 0x00, 0x00, 0x00, 0x00, 0x00, 0x00, 0x00,
  0x00, 0x00, 0x00, 0x00, 0x00, 0x00, 0x00, 0x00,
  0x00, 0x00, 0x00, 0x00, 0x00, 0x00, 0x00, 0x00,
  0x00, 0x00, 0x00, 0x00, 0x00, 0x00, 0x00, 0x00,
  0x00, 0x00, 0x00, 0x00, 0x00, 0x00, 0x00, 0x00,
  0x00, 0x00, 0x00, 0x00, 0x00, 0x00, 0x00, 0x00,
  0x00, 0x00, 0x00, 0x00, 0x00, 0x00, 0x00, 0x00,
  0x00, 0x00, 0x00, 0x00, 0x00, 0x00, 0x00, 0x00,
  0x00, 0x00, 0x00, 0x00, 0x00, 0x00, 0x00, 0x00,
  0x00, 0x00, 0x00, 0x00, 0x00, 0x00, 0x00, 0x00,
  0x00, 0x00, 0x00, 0x00, 0x00, 0x00, 0x00, 0x00,
  0x00, 0x00, 0x00, 0x00, 0x00, 0x00, 0x00, 0x00,
  0x00, 0x00, 0x00, 0x00, 0x00, 0x00, 0x00, 0x00,
  0x00, 0x00, 0x00, 0x00, 0x00, 0x00, 0x00, 0x00,
  0x00, 0x00, 0x00, 0x00, 0x00, 0x00, 0x00, 0x00,
  0x00, 0x00, 0x00, 0x00, 0x00, 0x00, 0x00, 0x00,
  0x00, 0x00, 0x00, 0x00, 0x00, 0x00, 0x00, 0x00,
  0x00, 0x00, 0x00, 0x00, 0x00, 0x00, 0x00, 0x00,
  0x00, 0x00, 0x00, 0x00, 0x00, 0x00, 0x00, 0x00,
  0x00, 0x00, 0x00, 0x00, 0x00, 0x00, 0x00, 0x00,
  0x00, 0x00, 0x00, 0x00, 0x00, 0x00, 0x00, 0x00,
  0x00, 0x00, 0x00, 0x00, 0x00, 0x00, 0x00, 0x00,
  0x00, 0x00, 0x00, 0x00, 0x00, 0x00, 0x00, 0x00,
  0x00, 0x00, 0x00, 0x00, 0x00, 0x00, 0x00, 0x00,
  0x00, 0x00, 0x00, 0x00, 0x00, 0x00, 0x00, 0x00,
  0x00, 0x00, 0x00, 0x00, 0x00, 0x00, 0x00, 0x00,
  0x00, 0x00, 0x00, 0x00, 0x00, 0x00, 0x00, 0x00,
  0x00, 0x00, 0x00, 0x00, 0x00, 0x00, 0x00, 0x00,
  0x00, 0x00, 0x00, 0x00, 0x00, 0x00, 0x00, 0x00,
  0x00, 0x00, 0x00, 0x00, 0x00, 0x00, 0x00, 0x00,
  0x00, 0x00, 0x00, 0x00, 0x00, 0x00, 0x00, 0x00,
  0x00, 0x00, 0x00, 0x00, 0x00, 0x00, 0x00, 0x00,
  0x00, 0x00, 0x00, 0x00, 0x00, 0x00, 0x00, 0x00,
  0x00, 0x00, 0x00, 0x00, 0x00, 0x00, 0x00, 0x00,
  0x00, 0x00, 0x00, 0x00, 0x00, 0x00, 0x00, 0x00,
  0x00, 0x00, 0x00, 0x00, 0x00, 0x00, 0x00, 0x00,
  0x00, 0x00, 0x00, 0x00, 0x00, 0x00, 0x00, 0x00,
  0x00, 0x00, 0x00, 0x00, 0x00, 0x00, 0x00, 0x00,
  0x00, 0x00, 0x00, 0x00, 0x00, 0x00, 0x00, 0x00,
  0x00, 0x00, 0x00, 0x00, 0x00, 0x00, 0x00, 0x00,
  0x00, 0x00, 0x00, 0x00, 0x00, 0x00, 0x00, 0x00,
  0x00, 0x00, 0x00, 0x00, 0x00, 0x00, 0x00, 0x00,
  0x00, 0x00, 0x00, 0x00, 0x00, 0x00, 0x00, 0x00,
  0x00, 0x00, 0x00, 0x00, 0x00, 0x00, 0x00, 0x00,
  0x00, 0x00, 0x00, 0x00, 0x00, 0x00, 0x00, 0x00,
  0x00, 0x00, 0x00, 0x00, 0x00, 0x00, 0x00, 0x00,
  0x00, 0x00, 0x00, 0x00, 0x00, 0x00, 0x00, 0x00,
  0x00, 0x00, 0x00, 0x00, 0x00, 0x00, 0x00, 0x00,
  0x00, 0x00, 0x00, 0x00, 0x00, 0x00, 0x00, 0x00,
  0x00, 0x00, 0x00, 0x00, 0x00, 0x00, 0x00, 0x00,
  0x00, 0x00, 0x00, 0x00, 0x00, 0x00, 0x00, 0x00,
  0x00, 0x00, 0x00, 0x00, 0x00, 0x00, 0x00, 0x00,
  0x00, 0x00, 0x00, 0x00, 0x00, 0x00, 0x00, 0x00,
  0x00, 0x00, 0x00, 0x00, 0x00, 0x00, 0x00, 0x00,
  0x00, 0x00, 0x00, 0x00, 0x00, 0x00, 0x00, 0x00,
  0x00, 0x00, 0x00, 0x00, 0x00, 0x00, 0x00, 0x00,
  0x00, 0x00, 0x00, 0x00, 0x00, 0x00, 0x00, 0x00,
  0x00, 0x00, 0x00, 0x00, 0x00, 0x00, 0x00, 0x00,
  0x00, 0x00, 0x00, 0x00, 0x00, 0x00, 0x00, 0x00,
  0x00, 0x00, 0x00, 0x00, 0x00, 0x00, 0x00, 0x00,
  0x00, 0x00, 0x00, 0x00, 0x00, 0x00, 0x00, 0x00,
  };
